<?xml version="1.0" ?><svg width="30px" height="27px" id="Layer_1" style="enable-background:new 0 0 24 24;" version="1.1" viewBox="0 0 24 24" xml:space="preserve" xmlns="http://www.w3.org/2000/svg" xmlns:xlink="http://www.w3.org/1999/xlink"><title/><g id="Bell"><g><path d="M8.58,5.94L8.5,6c0,0-3,1.16-3,6.5s-2,5.47-2,7s5.34,2,8.5,2s8.5-0.47,8.5-2s-2-1.66-2-7    s-3-6.5-3-6.5l-0.18-0.13L8.58,5.94z" style="fill:#FFCF01;"/><path d="M7,19.5c0-1.53,1.18-1.66,1.18-7S9.94,6,9.94,6V5.94h2H8.52    L8.5,6c0,0-3,1.16-3,6.5s-2,5.47-2,7s5.34,2,8.5,2C10.14,21.5,7,21,7,19.5z" style="opacity:0.3;fill:#FFFFFF;enable-background:new    ;"/><path d="M18.5,12.5c0-5.34-3-6.5-3-6.5l-0.18-0.13H14l0.1,0.12    c0,0,1.76,1.16,1.76,6.5S17,18,17,19.5s-3.14,2-5,2c3.16,0,8.5-0.47,8.5-2S18.5,17.84,18.5,12.5z" style="opacity:0.1;enable-background:new    ;"/><path d="M9.54,21.42c0.213,1.359,1.487,2.287,2.845,2.075c1.069-0.167,1.907-1.006,2.075-2.075H9.54z" style="fill:#FFCF01;"/><path d="M9.54,21.42c0.213,1.359,1.487,2.287,2.845,2.075    c1.069-0.167,1.907-1.006,2.075-2.075H9.54z" style="opacity:0.1;enable-background:new    ;"/><g><path d="M18,0.5c-1.22,0-3.3,1.18-4.77,2.65c-0.466-0.678-1.394-0.85-2.072-0.384     C11.025,2.858,10.907,2.97,10.81,3.1l0,0C9.34,1.61,7.22,0.5,6,0.5s-0.5,2.16-0.5,3s-0.19,3,1,3c1.114-0.171,2.196-0.508,3.21-1     l-1.21,3L10,8l0.5,1.5l1.5-4l1.5,4L14,8l1.5,0.5l-1.1-3c0.974,0.495,2.02,0.833,3.1,1c1.19,0,1-2.16,1-3S19.22,0.5,18,0.5z" style="fill:#D51C29;"/><path d="M6,1.5c1.22,0,3.34,1.11,4.81,2.58l0,0     c0.494-0.658,1.428-0.792,2.086-0.298c0.13,0.097,0.242,0.215,0.334,0.348C14.7,2.68,16.78,1.5,18,1.5c0.42,0,0.6,0.26,0.67,0.63     C18.77,1.31,18.75,0.5,18,0.5c-1.22,0-3.3,1.18-4.77,2.65c-0.466-0.678-1.394-0.85-2.072-0.384     C11.025,2.858,10.907,2.97,10.81,3.1l0,0C9.34,1.61,7.22,0.5,6,0.5c-0.75,0-0.76,0.81-0.67,1.63C5.4,1.76,5.58,1.5,6,1.5z" style="opacity:0.2;fill:#FFFFFF;enable-background:new    ;"/></g><g><path d="M7.5,12C7.224,12,7,12.224,7,12.5c0,3.4-0.79,5.06-1.47,6.13c-0.137,0.24-0.053,0.545,0.187,0.682     c0.222,0.127,0.504,0.065,0.653-0.142C7.13,18,8,16.16,8,12.5C8,12.224,7.776,12,7.5,12z" style="fill:#303C42;"/><path d="M21,19.5c-0.031-0.604-0.256-1.183-0.64-1.65C19.78,17,19,15.83,19,12.5     c0.109-1.956-0.44-3.892-1.56-5.5h0.06c0.343,0.003,0.672-0.134,0.91-0.38C19,6,19,4.67,19,3.8V3.5     c0.011-0.245,0.038-0.489,0.08-0.73c0.13-0.86,0.28-1.83-0.21-2.4C18.65,0.123,18.331-0.013,18,0c-1.23,0-3.2,1-4.75,2.45     c-0.717-0.548-1.713-0.548-2.43,0C9.519,1.135,7.829,0.276,6,0C5.664-0.013,5.341,0.127,5.12,0.38c-0.48,0.56-0.34,1.54-0.21,2.4     C4.955,3.018,4.985,3.258,5,3.5v0.3C5,4.67,5,6,5.59,6.62C5.828,6.866,6.157,7.003,6.5,7h0.06C5.44,8.608,4.891,10.544,5,12.5     c0,3.33-0.78,4.5-1.36,5.35C3.256,18.317,3.031,18.896,3,19.5c0,1.63,3.4,2.2,6.15,2.4c0.526,1.571,2.226,2.419,3.797,1.893     c0.893-0.299,1.594-1,1.893-1.893C17.6,21.7,21,21.13,21,19.5z M14.67,7.7l-0.51-0.17c-0.262-0.085-0.544,0.058-0.63,0.32     L13.47,8l-0.8-2.13c0.231-0.084,0.444-0.209,0.63-0.37l0.68,0.33L14.67,7.7z M10.06,5.87l0.69-0.32     c0.171,0.137,0.364,0.245,0.57,0.32L10.53,8l-0.05-0.16c-0.086-0.262-0.368-0.405-0.63-0.32L9.36,7.68L10.06,5.87z M18.12,1     c0.19,0.22,0,1.11,0,1.59c-0.053,0.291-0.086,0.585-0.1,0.88v0.32c0,0.57,0,1.75-0.31,2.1s-2.44-0.58-3.82-1.26     c0.181-0.456,0.181-0.964,0-1.42C15.21,2,17,1,18,1C18.039,0.985,18.081,0.985,18.12,1z M13,4c0,0.552-0.448,1-1,1s-1-0.448-1-1     s0.448-1,1-1S13,3.448,13,4z M6.3,5.92C6,5.57,6,4.39,6,3.82V3.5C5.986,3.205,5.953,2.911,5.9,2.62c-0.07-0.48-0.21-1.38,0-1.59     C5.929,1.01,5.964,0.999,6,1c1.585,0.278,3.045,1.039,4.18,2.18c-0.217,0.497-0.217,1.063,0,1.56C8.72,5.39,6.58,6.21,6.3,5.92z      M12,23c-0.717,0.003-1.381-0.379-1.74-1c0.71,0,1.32,0,1.74,0s1,0,1.74,0C13.381,22.621,12.717,23.003,12,23z M12,21     c-4.58,0-8-0.79-8-1.5c0.039-0.405,0.207-0.788,0.48-1.09C5.08,17.5,6,16.13,6,12.5c0-4.89,2.57-6,2.68-6l0.1-0.05L8,8.32     C7.874,8.566,7.97,8.867,8.216,8.993C8.355,9.065,8.519,9.067,8.66,9l1-0.34l0.34,1c0.068,0.202,0.257,0.338,0.47,0.34l0,0     c0.229,0.029,0.449-0.104,0.53-0.32l1-2.75l1,2.75c0.075,0.194,0.262,0.321,0.47,0.32l0,0c0.235,0.026,0.456-0.116,0.53-0.34     l0.34-1l1,0.34c0.251,0.115,0.548,0.006,0.663-0.245C16.065,8.62,16.064,8.464,16,8.33l-0.7-1.89l0,0c0.11,0,2.68,1.14,2.68,6     c0,3.63,0.92,5,1.52,5.91c0.292,0.316,0.468,0.721,0.5,1.15C20,20.21,16.58,21,12,21z" style="fill:#303C42;"/></g><linearGradient gradientUnits="userSpaceOnUse" id="SVGID_1_" x1="2.3162" x2="22.8086" y1="6.2927" y2="15.8491"><stop offset="0" style="stop-color:#FFFFFF;stop-opacity:0.2"/><stop offset="1" style="stop-color:#FFFFFF;stop-opacity:0"/></linearGradient><path d="M20.36,17.85C19.78,17,19,15.83,19,12.5c0.109-1.956-0.44-3.892-1.56-5.5h0.06    c0.343,0.003,0.672-0.134,0.91-0.38C19,6,19,4.67,19,3.8V3.5c0.011-0.245,0.038-0.489,0.08-0.73c0.13-0.86,0.28-1.83-0.21-2.4    C18.65,0.123,18.331-0.013,18,0c-1.23,0-3.2,1-4.75,2.45c-0.717-0.548-1.713-0.548-2.43,0C9.519,1.135,7.829,0.276,6,0    C5.664-0.013,5.341,0.127,5.12,0.38c-0.48,0.56-0.34,1.54-0.21,2.4C4.955,3.018,4.985,3.258,5,3.5v0.3C5,4.67,5,6,5.59,6.62    C5.828,6.866,6.157,7.003,6.5,7h0.06C5.44,8.608,4.891,10.544,5,12.5c0,3.33-0.78,4.5-1.36,5.35C3.256,18.317,3.031,18.896,3,19.5    c0,1.63,3.4,2.2,6.15,2.4c0.526,1.571,2.226,2.419,3.797,1.893c0.893-0.299,1.594-1,1.893-1.893c2.76-0.2,6.15-0.77,6.15-2.4    C20.961,18.897,20.741,18.319,20.36,17.85z" style="fill:url(#SVGID_1_);"/></g></g></svg>