<?xml version="1.0" ?><svg height="60px" version="1.1" viewBox="0 0 55 60" width="55px" xmlns="http://www.w3.org/2000/svg" xmlns:xlink="http://www.w3.org/1999/xlink"><title/><desc/><defs/><g fill="none" fill-rule="evenodd" id="Page-1" stroke="none" stroke-width="1"><g id="005---Bell" transform="translate(1.000000, 0.000000)"><g fill-rule="nonzero" id="Colour"><path d="M52.08,25.68 C52.0435259,26.9472824 51.8280602,28.2030433 51.44,29.41 C51.0058233,30.6324074 50.3095563,31.7450694 49.4,32.67 C48.9252877,33.2440846 48.3177361,33.6937415 47.63,33.98 C47.0981808,34.1417406 46.5297947,34.1382536 46,33.97 C45.1582772,33.6736565 44.3978784,33.1838501 43.78,32.54 C42.695238,31.4535316 41.7572787,30.2298141 40.99,28.9 L40.99,24 C40.9929006,22.3812864 40.7293792,20.77313 40.21,19.24 C41.1051509,20.0010578 42.0617487,20.686731 43.07,21.29 C45.7012148,23.0146788 48.9075105,23.6293386 51.99,23 C52,23.08 52.01,23.17 52.02,23.25 C52.0999065,24.0574115 52.1199613,24.8696288 52.08,25.68 L52.08,25.68 Z" fill="#FFB600" id="Shape"/><path d="M48.98523,25.68 C48.9596259,26.9365497 48.8010248,28.186855 48.51208,29.41 C48.21522,30.5805584 47.703854,31.685914 47.00392,32.67 C46.6864098,33.2109542 46.2360176,33.6618661 45.69543,33.98 C45.3093367,34.1417955 44.8737849,34.1381809 44.49043,33.97 C43.8303746,33.6410722 43.2654027,33.1488105 42.84921,32.54 C42.022951,31.410696 41.3307815,30.1891631 40.78664,28.9 L40.78664,24 C40.7905626,22.3956775 40.5968916,20.7969781 40.21,19.24 C40.8537464,19.9836028 41.561226,20.6695439 42.32437,21.29 C44.29823,22.88 46.63437,23.77 48.91871,23 C48.92611,23.08 48.93351,23.17 48.94091,23.25 C48.9999878,24.0585856 49.0147832,24.8697979 48.98523,25.68 L48.98523,25.68 Z" fill="#FFE100" id="Shape"/><path d="M11.8,19.25 C11.2290615,20.9070686 10.9368121,22.6473322 10.93514,24.4 L10.93514,29.08 C10.1999976,30.3433953 9.30450286,31.5063799 8.27095,32.54 C7.65768484,33.1832188 6.9016567,33.6730895 6.064,33.97 C5.53748584,34.1382546 4.97215068,34.1417435 4.4436,33.98 C3.76064603,33.6905452 3.15721221,33.2412759 2.68408,32.67 C1.77907441,31.7437248 1.08699036,30.6312031 0.65608,29.41 C0.270231209,28.2026329 0.0560745841,26.9470068 0.0199,25.68 C-0.0198830782,24.8696338 5.41511858e-05,24.0574382 0.07955,23.25 C0.0895,23.17 0.09939,23.08 0.10934,23 C3.17495961,23.62908 6.3649152,23.0139279 8.97678,21.29 C9.97295188,20.6897027 10.9173009,20.0073358 11.8,19.25 Z" fill="#FFE100" id="Shape"/><path d="M12,19.25 C11.4290615,20.9070686 11.1368121,22.6473322 11.13514,24.4 L11.13514,29.08 C10.4000131,30.3433924 9.50453527,31.5063769 8.471,32.54 C7.85772058,33.1832253 7.10167464,33.6730965 6.264,33.97 C5.73748584,34.1382546 5.17215068,34.1417435 4.6436,33.98 C3.96064603,33.6905452 3.35721221,33.2412759 2.88408,32.67 C1.97907441,31.7437248 1.28699036,30.6312031 0.85608,29.41 C0.470231209,28.2026329 0.256074584,26.9470068 0.2199,25.68 C0.180116922,24.8696338 0.200054151,24.0574382 0.27955,23.25 C0.2895,23.17 0.29939,23.08 0.30934,23 C3.37495961,23.62908 6.5649152,23.0139279 9.17678,21.29 C10.1729519,20.6897027 11.1173009,20.0073358 12,19.25 L12,19.25 Z" fill="#FFE100" id="Shape"/><path d="M6.25,33.9 C6.18904342,33.929338 6.12542036,33.952778 6.06,33.97 C5.53362771,34.1382871 4.96840972,34.1417761 4.44,33.98 C3.75821434,33.6882741 3.15512171,33.2393813 2.68,32.67 C1.77643,31.744081 1.08690171,30.6312779 0.66,29.41 C0.271914747,28.2030495 0.0564484557,26.947285 0.02,25.68 C-0.0200212636,24.8696296 3.35948374e-05,24.0574078 0.08,23.25 C0.09,23.17 0.1,23.08 0.11,23 C1.07345326,23.2416574 2.06961998,23.3260783 3.06,23.25 C2.99667256,24.058405 2.98331382,24.8699487 3.02,25.68 C3.04226218,26.9372078 3.20323704,28.1881167 3.5,29.41 C3.80475288,30.5853115 4.33081327,31.6917353 5.05,32.67 C5.36258884,33.157024 5.7708415,33.575483 6.25,33.9 Z" fill="#FFFFFF" id="Shape"/><path d="M51,49 C51,54.52 39.81,59 26,59 C25.5,59 25,58.99 24.5,58.98 C11.39,58.67 1,54.32 1,49 C1,46.77 2.83,44.7 5.92,43.04 C9.08214204,41.2925569 11.0323069,37.9527076 11,34.34 L11,24.4 C10.9976662,21.5242066 11.7901727,18.7037138 13.29,16.25 C15.6973172,12.2175315 19.8681452,9.55932379 24.54,9.08 L24.55,9.08 C24.67,9.06 24.8,9.05 24.93,9.04 C25.26,9.02 25.6,9 25.93,9 L26.01,9 C29.985418,8.99624472 33.7977276,10.5802072 36.6,13.4 C37.4610706,14.2542302 38.2134239,15.2114654 38.84,16.25 C39.4120122,17.1910488 39.8749952,18.1941785 40.22,19.24 C40.7393792,20.77313 41.0029006,22.3812864 41,24 L41,34.34 C40.9676931,37.9527076 42.917858,41.2925569 46.08,43.04 C49.17,44.7 51,46.77 51,49 Z" fill="#FFB600" id="Shape"/><path d="M48,49 C48,54.32 37.61,58.67 24.5,58.98 C11.39,58.67 1,54.32 1,49 C1,46.77 2.83,44.7 5.92,43.04 C9.08214204,41.2925569 11.0323069,37.9527076 11,34.34 L11,24.4 C10.9976662,21.5242066 11.7901727,18.7037138 13.29,16.25 C15.6973172,12.2175315 19.8681452,9.55932379 24.54,9.08 L24.55,9.08 C27.9753782,9.43043956 31.1734791,10.9570468 33.6,13.4 C34.4610706,14.2542302 35.2134239,15.2114654 35.84,16.25 C36.4120122,17.1910488 36.8749952,18.1941785 37.22,19.24 C37.7393792,20.77313 38.0029006,22.3812864 38,24 L38,34.34 C37.9676931,37.9527076 39.917858,41.2925569 43.08,43.04 C46.17,44.7 48,46.77 48,49 Z" fill="#FFE100" id="Shape"/><ellipse cx="26" cy="49.5" fill="#FFB600" id="Oval" rx="21" ry="6.5"/><ellipse cx="24.5" cy="49.5" fill="#FFE100" id="Oval" rx="19.5" ry="6.5"/><path d="M33,45 C33,48.8659932 29.8659932,52 26,52 C22.1340068,52 19,48.8659932 19,45 C18.9999698,44.4439523 19.0671231,43.8899377 19.2,43.35 C23.7213248,42.8833586 28.2786752,42.8833586 32.8,43.35 C32.9328769,43.8899377 33.0000302,44.4439523 33,45 Z" fill="#FFB600" id="Shape"/><path d="M22.05333,5 C22.0533845,4.23138342 22.2723717,3.47868314 22.68466,2.83 C20.79067,2.14 11.76487,-0.87 8.24331,2.76 C4.94861,6.16 11.29141,13.83 13.4615,16.25 C15.8778948,12.1120472 20.1667377,9.41892787 24.94356,9.04 C25.2691,9.02 25.60445,9 25.92999,9 C23.7626448,8.94816555 22.0372791,7.1679055 22.05333,5 Z M18.4134,6.15 C17.5104242,6.73811527 16.4907542,7.12362381 15.42455,7.28 C14.412525,7.58820408 13.3269804,7.55304509 12.33702,7.18 C12.0317616,7.02942811 11.8211081,6.73720246 11.77475,6.4 C11.6932935,5.89776338 11.8670866,5.38791912 12.23834,5.04 C12.2922611,4.99545131 12.3519921,4.95844532 12.41589,4.93 C13.303145,4.58382245 14.2599968,4.4535737 15.2075,4.55 C16.1876226,4.59477814 17.1600045,4.74565928 18.10761,5 C18.35422,5.06 18.81781,5.18 18.86718,5.5 C18.91649,5.78 18.6107,6.01 18.4134,6.15 Z" fill="#FFE100" id="Shape"/><path d="M44.13,2.76 C40.56,-0.87 31.41,2.14 29.49,2.83 L29.48,2.83 L29.39,2.88 C29.7919116,3.51377971 30.003615,4.24953574 30,5 C30.0017639,7.2059657 28.2159632,8.99624205 26.01,9 C29.985418,8.99624472 33.7977276,10.5802072 36.6,13.4 C37.4610706,14.2542302 38.2134239,15.2114654 38.84,16.25 C41.04,13.83 47.47,6.16 44.13,2.76 Z M40.44,6.4 C40.3918689,6.73874753 40.1781208,7.03124496 39.87,7.18 C38.8653521,7.55307632 37.7664135,7.58818618 36.74,7.28 C35.6608306,7.12427966 34.6276019,6.73895014 33.71,6.15 C33.51,6.01005 33.2,5.78 33.25,5.5 C33.3,5.18 33.77,5.06 34.02,5 C34.9811458,4.74557312 35.9667554,4.59471451 36.96,4.55 C37.9200717,4.45349907 38.8893917,4.58365511 39.79,4.93 C39.8546839,4.95838573 39.9152324,4.99538762 39.97,5.04 C40.3455095,5.38538067 40.5221336,5.89646324 40.44,6.4 Z" fill="#FFE100" id="Shape"/><path d="M30.5,5 C30.501985,7.4817078 28.492965,9.49576748 26.01126,9.5 L25.92126,9.5 C24.2876871,9.47132966 22.797974,8.5595421 22.0292394,7.11786617 C21.2605048,5.67619024 21.3335205,3.93111993 22.22,2.5587 L22.23126,2.5587 C23.0636123,1.26555608 24.5001782,0.488702143 26.0380017,0.500122513 C27.5758252,0.511542883 29.000695,1.30964676 29.81375,2.61501 C30.2658958,3.32801064 30.5040618,4.15573155 30.5,5 Z" fill="#FFE100" id="Shape"/><path d="M1,49 C1,54.52 12.19,59 26,59 C26.5,59 27,58.99 27.5,58.98 C14.39,58.67 4,54.32 4,49 C4,46.77 5.83,44.7 8.92,43.04 C12.082142,41.2925569 14.0323069,37.9527076 14,34.34 L14,24 C13.9970994,22.3812864 14.2606208,20.77313 14.78,19.24 C15.1250048,18.1941785 15.5879878,17.1910488 16.16,16.25 C16.7865761,15.2114654 17.5389294,14.2542302 18.4,13.4 C20.8265209,10.9570468 24.0246218,9.43043956 27.45,9.08 C27.33,9.06 27.2,9.05 27.07,9.04 C26.74,9.02 26.4,9 26.07,9 L25.99,9 C22.014582,8.99624472 18.2022724,10.5802072 15.4,13.4 C14.5389294,14.2542302 13.7865761,15.2114654 13.16,16.25 C12.5879878,17.1910488 12.1250048,18.1941785 11.78,19.24 C11.2606208,20.77313 10.9970994,22.3812864 11,24 L11,34.34 C11.0323069,37.9527076 9.08214204,41.2925569 5.92,43.04 C2.83,44.7 1,46.77 1,49 Z" fill="#FFFFFF" id="Shape"/><path d="M14.7,14.31 C14.1813268,14.9198514 13.7099577,15.5684017 13.29,16.25 C11.09,13.83 4.66,6.16 8,2.76 C9.61,1.12 12.36,0.84 15.06,1.08 C13.5764239,1.16469415 12.1673391,1.75799303 11.07,2.76 C8.38,5.5 12.03,11.01 14.7,14.31 Z" fill="#FFFFFF" id="Shape"/><path d="M37.36,14.31 C37.87867,14.9198539 38.3500389,15.568404 38.77,16.25 C40.97,13.83 47.4,6.16 44.06,2.76 C42.45,1.12 39.7,0.84 37,1.08 C38.4835761,1.16469415 39.8926609,1.75799303 40.99,2.76 C43.68,5.5 40.03,11.01 37.36,14.31 Z" fill="#FFB600" id="Shape"/></g><g id="Outline" transform="translate(0.000000, 1.000000)"><circle cx="8" cy="7.5" fill="#000000" fill-rule="nonzero" id="Oval" r="1"/><path d="M51,48 C51,53.52 39.81,58 26,58 C12.19,58 1,53.52 1,48 C1,45.76806 2.83087,43.70385 5.92343,42.03948 C9.0836856,40.2895815 11.0320779,36.9497574 11,33.33751 L11,23.39612 C10.9183119,15.4233568 16.9879758,8.73148439 24.93087,8.03718 C29.082826,7.74690281 33.1691142,9.19228811 36.2151431,12.0286074 C39.261172,14.8649266 40.993876,18.8379138 41,23 L41,33.33751 C40.9679111,36.9497681 42.9163049,40.2896064 46.07657,42.03951 C49.16913,43.70385 51,45.76806 51,48 Z" id="Shape" stroke="#000000" stroke-linecap="round" stroke-linejoin="round" stroke-width="2"/><path d="M25.20752,12.02734 C25.4731733,12.00928 25.737,12.0001667 25.999,12 C32.0694861,12.0115923 36.9878558,16.9295149 37,23" id="Shape" stroke="#000000" stroke-linecap="round" stroke-linejoin="round" stroke-width="2"/><path d="M17.22839,38.55078 C23.0530739,37.8164067 28.9469261,37.8164067 34.77161,38.55078" id="Shape" stroke="#000000" stroke-linecap="round" stroke-linejoin="round"/><ellipse cx="26" cy="48.5" id="Oval" rx="21" ry="6.5" stroke="#000000" stroke-linecap="round" stroke-linejoin="round"/><path d="M19.2,42.35 C19.0671209,42.8899373 18.9999676,43.4439522 19,44 C19,47.8659932 22.1340068,51 26,51 C29.8659932,51 33,47.8659932 33,44 C33.0000324,43.4439522 32.9328791,42.8899373 32.8,42.35" id="Shape" stroke="#000000" stroke-linecap="round" stroke-linejoin="round"/><circle cx="26" cy="4" id="Oval" r="4" stroke="#000000" stroke-linecap="round" stroke-linejoin="round" stroke-width="2"/><path d="M13.29,15.25 C12.0732891,13.9143678 10.9442645,12.5014168 9.91,11.02" id="Shape" stroke="#000000" stroke-linecap="round" stroke-linejoin="round" stroke-width="2"/><path d="M7.12,3.49 C7.22695441,2.83606936 7.53446509,2.23153131 8,1.76 C11.57,-1.87 20.72,1.14 22.64,1.83 L22.65,1.83" id="Shape" stroke="#000000" stroke-linecap="round" stroke-linejoin="round" stroke-width="2"/><path d="M38.84314,15.25 C41.04314,12.83 47.47314,5.16 44.13314,1.76 C40.56314,-1.87 31.41314,1.14 29.49314,1.83 L29.48314,1.83" id="Shape" stroke="#000000" stroke-linecap="round" stroke-linejoin="round" stroke-width="2"/><path d="M41,27.9 C41.768549,29.2285467 42.7059849,30.4519225 43.7889,31.53958 C44.4094464,32.1808984 45.1705569,32.6692119 46.01216,32.96598 C46.5408665,33.1363879 47.1088624,33.1421906 47.64094,32.98262 C48.3292389,32.6926864 48.9372922,32.2407358 49.41334,31.66524 C50.3242039,30.744901 51.0191917,29.6336692 51.44806,28.41188 C51.8373924,27.206013 52.0551002,25.9513587 52.09478,24.68482 C52.1325998,23.8733712 52.1108213,23.060241 52.02962,22.25198 C52.02087,22.16786 52.01145,22.08379 52,21.99998 C48.9175764,22.6293753 45.7113233,22.0145701 43.08035,20.28962 C42.0723874,19.6858855 41.1157207,19.0003739 40.22,18.24" id="Shape" stroke="#000000" stroke-linecap="round" stroke-linejoin="round" stroke-width="2"/><path d="M11,28.08 C10.2598419,29.344234 9.35901084,30.5072472 8.32,31.54 C7.70212636,32.1838559 6.94172609,32.6736633 6.1,32.97 C5.57020482,33.1382504 5.00181964,33.1417375 4.47,32.98 C3.7837557,32.6911165 3.17678679,32.241891 2.7,31.67 C1.79046252,30.7450545 1.09419829,29.632397 0.66,28.41 C0.271903658,27.2030522 0.0564370946,25.9472861 0.02,24.68 C-0.0199908272,23.8696292 6.39756203e-05,23.0574097 0.08,22.25 C0.09,22.17 0.1,22.08 0.11,22 C3.19248946,22.6293408 6.39878599,22.0146808 9.03,20.29 C10.0316514,19.690011 10.9816004,19.0076533 11.87,18.25 C11.88,18.25 11.88,18.25 11.89,18.24" id="Shape" stroke="#000000" stroke-linecap="round" stroke-linejoin="round" stroke-width="2"/><path d="M12.04521,4.045 C12.1013557,4.00109835 12.1616202,3.96273603 12.22516,3.93045 C13.1265483,3.58359682 14.0967884,3.45324842 15.05776,3.5499 C16.0515664,3.59644734 17.0377292,3.74730923 18,4 C18.2541,4.06352 18.72272,4.182 18.774,4.49979 C18.8187,4.77664 18.50569,5.01092 18.31265,5.14871 C17.3917757,5.73640652 16.3566701,6.12199605 15.27573,6.28 C14.2511189,6.58827578 13.1540343,6.55489646 12.15006,6.1849 C11.8416765,6.03356744 11.629437,5.73800404 11.58459,5.39743 C11.494695,4.89735594 11.6687719,4.3862471 12.04521,4.045 L12.04521,4.045 Z" id="Shape" stroke="#000000" stroke-linecap="round" stroke-linejoin="round"/><path d="M39.97468,4.045 C39.9185181,4.00109613 39.8582368,3.96273377 39.79468,3.93045 C38.8932918,3.58359645 37.9230516,3.45324805 36.96208,3.5499 C35.9682903,3.59644935 34.9821442,3.74731124 34.01989,4 C33.76579,4.06352 33.29716,4.182 33.24589,4.49979 C33.2012,4.77664 33.5142,5.01092 33.70724,5.14871 C34.6281127,5.73640247 35.6632141,6.12199173 36.74415,6.28 C37.7687611,6.58827578 38.8658457,6.55489646 39.86982,6.1849 C40.1782035,6.03356744 40.390443,5.73800404 40.43529,5.39743 C40.5251895,4.89735756 40.351116,4.3862481 39.97468,4.045 L39.97468,4.045 Z" id="Shape" stroke="#000000" stroke-linecap="round" stroke-linejoin="round"/></g></g></g></svg>