<svg id="icons" xmlns="http://www.w3.org/2000/svg" viewBox="0 0 128 128" height="30px" width="30px"><defs><style>.cls-1{fill:#f54b55;}.cls-2{fill:#ffe300;}.cls-3{fill:none;stroke:#303442;stroke-linecap:round;stroke-linejoin:round;stroke-width:4px;}.cls-4{fill:#303442;opacity:0.08;}</style></defs><title>home</title><rect class="cls-1" x="53" y="70" width="22" height="40"/><polygon class="cls-2" points="98 50.52 98 110 75 110 75 70 53 70 53 110 30 110 30 50.52 64 18 98 50.52"/><polyline class="cls-3" points="110 62 98 50.52 64 18 30 50.52 18 62"/><path class="cls-3" d="M53,110H34a4,4,0,0,1-4-4V50.52"/><path class="cls-3" d="M98,50.52V106a4,4,0,0,1-4,4H75"/><rect class="cls-3" x="53" y="70" width="22" height="40"/><path class="cls-4" d="M98,100v6a4,4,0,0,1-4,4H34a4,4,0,0,1-4-4v-6Z"/></svg>