<?xml version="1.0" ?><!DOCTYPE svg  PUBLIC '-//W3C//DTD SVG 1.1//EN'  'http://www.w3.org/Graphics/SVG/1.1/DTD/svg11.dtd'><svg height="30px" style="enable-background:new 0 0 512 512;" version="1.1" viewBox="0 0 512 512" width="30px" xml:space="preserve" xmlns="http://www.w3.org/2000/svg" xmlns:xlink="http://www.w3.org/1999/xlink"><g id="email_x2C__mail__x2C__letter__x2C__internet__x2C__envelope__x2C__chat__x2C___error__x2C_"><g><path d="M396.167,265.386c-43.861,0-79.355,35.492-79.355,79.354    s35.494,79.355,79.355,79.355c43.768,0,79.356-35.493,79.356-79.355S439.935,265.386,396.167,265.386L396.167,265.386z" style="fill-rule:evenodd;clip-rule:evenodd;fill:#F36360;"/><path d="M396.167,272.072c-20.085,0-38.313,8.191-51.443,21.32c-13.114,13.114-21.212,31.262-21.212,51.348    c0,20.074,8.098,38.22,21.212,51.431c13.13,13.128,31.358,21.226,51.443,21.226c19.992,0,38.234-8.098,51.349-21.226    c13.115-13.211,21.226-31.356,21.226-51.431c0-20.086-8.11-38.233-21.226-51.348C434.401,280.264,416.159,272.072,396.167,272.072    L396.167,272.072z M335.311,283.871c15.584-15.488,37.082-25.186,60.856-25.186c23.695,0,45.273,9.697,60.775,25.186    c15.597,15.597,25.28,37.081,25.28,60.869c0,23.776-9.684,45.272-25.28,60.855c-15.502,15.584-37.08,25.188-60.775,25.188    c-23.774,0-45.272-9.604-60.856-25.188c-15.596-15.583-25.198-37.079-25.198-60.855    C310.112,320.952,319.715,299.468,335.311,283.871L335.311,283.871z" style="fill:#4A374F;"/><path d="M405.946,315.323v29.417c0,5.547-4.313,9.779-9.779,9.779    c-5.547,0-9.859-4.232-9.859-9.779v-29.417c0-5.466,4.313-9.779,9.859-9.779C401.633,305.544,405.946,309.857,405.946,315.323    L405.946,315.323z" style="fill-rule:evenodd;clip-rule:evenodd;fill:#FFFFFF;"/><path d="M412.646,315.323v29.417c0,4.571-1.857,8.721-4.855,11.705c-2.902,2.997-7.053,4.855-11.624,4.855    c-4.665,0-8.721-1.858-11.704-4.855c-3.011-2.984-4.855-7.134-4.855-11.705v-29.417c0-4.489,1.845-8.64,4.855-11.638    c2.983-2.983,7.039-4.841,11.704-4.841c4.571,0,8.722,1.857,11.624,4.841C410.789,306.684,412.646,310.834,412.646,315.323    L412.646,315.323z M399.246,344.74v-29.417c0-0.882-0.353-1.682-0.868-2.211c-0.542-0.528-1.329-0.882-2.211-0.882    c-0.963,0-1.667,0.354-2.292,0.882c-0.516,0.529-0.881,1.329-0.881,2.211v29.417c0,0.963,0.365,1.764,0.881,2.197    c0.625,0.623,1.329,0.882,2.292,0.882c0.882,0,1.669-0.259,2.211-0.882C398.894,346.504,399.246,345.703,399.246,344.74    L399.246,344.74z" style="fill:#4A374F;"/><path d="M405.946,382.173c0,5.453-4.313,9.766-9.779,9.766    c-5.547,0-9.859-4.313-9.859-9.766c0-5.547,4.313-9.872,9.859-9.872C401.633,372.301,405.946,376.626,405.946,382.173    L405.946,382.173z" style="fill-rule:evenodd;clip-rule:evenodd;fill:#FFFFFF;"/><path d="M412.646,382.173c0,4.489-1.857,8.627-4.855,11.624c-2.902,2.997-7.053,4.842-11.624,4.842    c-4.665,0-8.721-1.845-11.704-4.842c-3.011-2.997-4.855-7.135-4.855-11.624c0-4.584,1.845-8.72,4.855-11.717    c2.983-2.998,7.134-4.842,11.704-4.842c4.571,0,8.641,1.844,11.624,4.842C410.789,373.453,412.646,377.589,412.646,382.173    L412.646,382.173z M398.378,384.37c0.516-0.527,0.868-1.314,0.868-2.197c0-0.881-0.353-1.681-0.868-2.292    c-0.542-0.528-1.329-0.881-2.211-0.881c-0.963,0-1.764,0.353-2.292,0.881c-0.516,0.611-0.881,1.411-0.881,2.292    c0,0.883,0.365,1.67,0.881,2.197c0.625,0.529,1.329,0.882,2.292,0.882C397.049,385.252,397.836,384.899,398.378,384.37    L398.378,384.37z" style="fill:#4A374F;"/><path d="M438.361,254.101V123.234c0-9.697-3.96-18.594-10.308-24.929    L296.292,229.973l-25.634,25.714c-9.25,9.169-21.226,13.835-33.202,13.835c-12.064,0-24.047-4.666-33.202-13.835l-25.722-25.714    l-54.957,54.604l-76.717,76.372c6.341,6.334,15.326,10.294,24.929,10.294h227.935c-2.278-8.449-3.607-17.347-3.607-26.502    c0-27.572,11.271-52.583,29.323-70.729c18.064-18.051,43.075-29.241,70.729-29.241C411.235,244.77,425.504,248.12,438.361,254.101    L438.361,254.101z" style="fill-rule:evenodd;clip-rule:evenodd;fill:#FBCD64;"/><path d="M123.577,284.576l54.957-54.604L46.859,98.305    c-6.429,6.335-10.389,15.232-10.389,24.929v212.69c0,9.778,3.96,18.595,10.389,25.023L123.577,284.576z" style="fill-rule:evenodd;clip-rule:evenodd;fill:#FBCD64;"/><path d="M51.62,102.971c-2.732,2.727-4.849,5.806-6.26,9.332c-1.41,3.35-2.197,7.052-2.197,10.931v212.69    c0,3.879,0.787,7.581,2.197,10.931c0.529,1.397,1.235,2.808,2.028,4.043l126.479-125.672l9.42,9.507L46.859,370.374l-4.754-4.76    c-3.878-3.784-6.957-8.464-9.073-13.563c-2.116-5.019-3.255-10.484-3.255-16.126v-212.69c0-5.643,1.139-11.108,3.255-16.031    c2.116-5.208,5.195-9.779,9.073-13.658L51.62,102.971z" style="fill:#4A374F;"/><path d="M178.533,229.973l25.722,25.714    c9.155,9.169,21.138,13.835,33.202,13.835c11.976,0,23.952-4.666,33.202-13.835l25.634-25.714L428.054,98.305    c-6.429-6.347-15.326-10.401-25.009-10.401H71.788c-9.603,0-18.588,4.055-24.929,10.401L178.533,229.973z" style="fill-rule:evenodd;clip-rule:evenodd;fill:#FBCD64;"/><path d="M301.839,377.942H71.788c-5.547,0-11.013-1.14-16.031-3.174c-5.106-2.115-9.78-5.289-13.652-9.154    l9.42-9.427c2.645,2.645,5.819,4.761,9.338,6.253c3.438,1.315,7.134,2.115,10.925,2.115H298.15    C299.018,369.126,300.252,373.629,301.839,377.942L301.839,377.942z" style="fill:#4A374F;"/><path d="M301.053,225.308l37.433,37.786l-0.19,0.081h-0.081l-0.082,0.095l-0.189,0.177l-0.162,0.081    l-0.19,0.177l-0.163,0.095l-0.189,0.081l0,0l-0.081,0.177l-0.177,0.095l-0.177,0.177l-0.176,0.081l-0.177,0.095l-0.176,0.176l0,0    l-0.177,0.081l-0.176,0.178l-0.177,0.095l-0.176,0.176l-0.176,0.082v0.095l-0.083,0.081l-0.189,0.095l-0.162,0.082l-0.177,0.176    l-0.8,0.624l-0.162,0.177l-0.191,0.081l-0.162,0.176l0,0l-0.189,0.095l-0.163,0.163l-0.19,0.096l-0.081,0.176l-0.176,0.082    l-0.095,0.095l-0.082,0.081l-0.176,0.095l-0.177,0.177l-0.177,0.095l-0.095,0.176l-0.705,0.529l-0.081,0.163l-0.176,0.095    l-0.177,0.176l0,0l-0.177,0.081l-0.176,0.177l-0.177,0.096l-0.095,0.176l-0.163,0.177l-0.189,0.081l0,0l-0.163,0.176l-0.095,0.096    l-0.176,0.176l-0.178,0.082l-0.176,0.176l-0.081,0.095v0.082l-0.189,0.095l-0.163,0.177l-0.19,0.081l-0.081,0.176l-0.176,0.177    l-36.553-36.81L301.053,225.308z M431.742,251.293l-0.081-128.059c0-3.879-0.786-7.581-2.116-10.931    c-1.491-3.526-3.607-6.605-6.252-9.332l9.426-9.426c3.879,3.879,7.053,8.449,9.168,13.658c2.008,4.923,3.16,10.389,3.16,16.031    v134.313l-0.176-0.096l-0.176-0.081l-0.258-0.176l-0.178-0.097l-0.176-0.081l-0.189-0.095l-0.081-0.081l-0.176-0.095l-0.178-0.081    l-0.162-0.095l-0.271-0.082l-0.176-0.177h-0.096l-0.081-0.095l-0.271-0.081l-0.162-0.095l-0.19-0.081l-0.258-0.177l-0.176-0.096    l0,0l-0.176-0.081l-0.177-0.095l-0.271-0.081l-0.163-0.176l-0.271-0.096l0,0l-0.177-0.081l-0.177-0.096l-0.271-0.081l-0.163-0.082    l-0.19-0.095l-0.081-0.095l-0.176-0.081l-0.176-0.095l-0.177-0.081l-0.258-0.095l-0.189-0.082l-0.163-0.095l0,0l-0.271-0.082    l-0.177-0.095l-0.257-0.176l-0.189-0.082l-0.164-0.095l0,0l-0.882-0.353l-0.176-0.081h-0.081l-0.189-0.082l-0.164-0.095    l-0.189-0.081l-0.257-0.095l-0.177-0.082l-0.082-0.095h-0.189l-0.163-0.082l-0.271-0.095l-0.177-0.081l-0.177-0.095l-0.176-0.081    h-0.095l-0.162-0.095L433.424,252l-0.176-0.096l-0.258-0.082l-0.19-0.095l0,0l-0.257-0.081l-0.177-0.095l-0.176-0.082    l-0.259-0.095L431.742,251.293z" style="fill:#4A374F;"/><path d="M432.719,102.971L275.337,260.354c-5.126,5.208-11.02,9.073-17.448,11.719    c-6.517,2.82-13.474,4.136-20.432,4.136c-6.958,0-13.916-1.315-20.521-4.136c-6.347-2.646-12.336-6.511-17.442-11.719    L37.434,98.305l4.672-4.76c3.872-3.879,8.545-6.957,13.652-9.073c5.018-2.116,10.484-3.255,16.031-3.255h331.257    c5.628,0,11.094,1.14,16.03,3.255c5.1,2.116,9.765,5.194,13.644,9.073l4.748,4.76L432.719,102.971z M265.904,250.941    L418.018,98.835c-1.329-0.801-2.658-1.506-4.056-2.035c-3.35-1.41-7.038-2.197-10.917-2.197H71.788    c-3.791,0-7.487,0.787-10.925,2.197c-1.322,0.529-2.726,1.234-3.96,2.035l152.105,152.105c3.872,3.878,8.368,6.863,13.034,8.803    c4.929,2.021,10.131,3.078,15.414,3.078c5.195,0,10.477-1.058,15.326-3.078C257.535,257.804,262.032,254.819,265.904,250.941    L265.904,250.941z" style="fill:#4A374F;"/></g></g><g id="Layer_1"/></svg>